<?xml version="1.0" standalone="no"?><!DOCTYPE svg PUBLIC "-//W3C//DTD SVG 1.1//EN" "http://www.w3.org/Graphics/SVG/1.1/DTD/svg11.dtd">
<svg t="1606547972529" fill="currentColor" class="icon" viewBox="0 0 1024 1024" version="1.1"
    xmlns="http://www.w3.org/2000/svg" p-id="2550" width="75" height="75"
    xmlns:xlink="http://www.w3.org/1999/xlink">
    <defs>
        <style type="text/css"></style>
    </defs>
    <path d="M511.918882 1024a35.229225 35.229225 0 0 1-12.179577-2.167061L3.088354 841.144099A4.635424 4.635424 0 0 1 0.040562 836.879508v-77.145049a4.635424 4.635424 0 0 1 4.554305-4.565893 5.608863 5.608863 0 0 1 1.599221 0.336068l87.04168 31.659948V82.278782a82.278782 82.278782 0 0 1 82.209251-82.278782h673.063612a82.278782 82.278782 0 0 1 82.209251 82.278782v704.897389l86.995326-31.659948a4.635424 4.635424 0 0 1 1.599221-0.278126 4.473184 4.473184 0 0 1 4.264591 2.943495 5.307561 5.307561 0 0 1 0.32448 1.726695v77.14505a4.635424 4.635424 0 0 1-3.094146 4.276179L524.086871 1021.844528a35.321933 35.321933 0 0 1-12.167989 2.155472z m-5.724749-82.429433l7.775925-2.81602L849.134414 816.866064V81.664588H174.842414v735.201476l331.351719 120.521032z" p-id="2551"></path>
    <path d="M480.154637 765.076786a4.635424 4.635424 0 0 1-4.554304-4.554305V672.658013h-104.134808a4.635424 4.635424 0 0 1-4.565893-4.565893V633.025135a4.635424 4.635424 0 0 1 4.565893-4.565893h104.169573V566.39091h-104.169573a4.565893 4.565893 0 0 1-4.565893-4.554304V526.758032a4.635424 4.635424 0 0 1 4.565893-4.565893h83.437638l-139.06273-256.547559a4.484773 4.484773 0 0 1 1.796227-6.107172l0.173829-0.092708a3.893756 3.893756 0 0 1 1.993232-0.509897h72.104025a4.531127 4.531127 0 0 1 4.044408 2.572661l111.192241 221.608048h11.426321l111.250184-221.665991a4.42683 4.42683 0 0 1 4.009642-2.503129h70.53957a4.786076 4.786076 0 0 1 4.635424 4.484773 5.469801 5.469801 0 0 1-0.648959 2.190238L569.629915 522.064665h84.272015a4.554304 4.554304 0 0 1 4.554304 4.554304v35.078574a4.635424 4.635424 0 0 1-4.554304 4.565893h-104.609939v62.068332h104.551996a4.554304 4.554304 0 0 1 4.554304 4.554304v35.066985a4.565893 4.565893 0 0 1-4.554304 4.565893h-104.551996v87.991943a4.565893 4.565893 0 0 1-4.565893 4.554304H480.154637z" p-id="2552"></path>
</svg>