<?xml version="1.0" standalone="no"?><!DOCTYPE svg PUBLIC "-//W3C//DTD SVG 1.1//EN" "http://www.w3.org/Graphics/SVG/1.1/DTD/svg11.dtd">
<svg t="1606548121815" fill="currentColor" class="icon" viewBox="0 0 1024 1024" version="1.1"
    xmlns="http://www.w3.org/2000/svg" p-id="3504"
    xmlns:xlink="http://www.w3.org/1999/xlink" width="75" height="75">
    <defs>
        <style type="text/css"></style>
    </defs>
    <path d="M512 102.4c226.214912 0 409.6 183.385088 409.6 409.6 0 0.458752-0.008192 0.914432-0.01024 1.37216L690.89792 409.099264l98.358272-27.556864c-48.996352-103.958528-154.730496-175.90784-277.271552-175.90784-158.057472 0-288.152576 119.697408-304.602112 273.386496l-90.69568-74.63936C163.945472 230.3744 323.027968 102.4 512 102.4z m-0.016384 715.96032c159.07328 0 289.82784-121.2416 304.90624-276.35712l96.295936 52.98176C874.822656 781.4144 709.782528 921.6 512 921.6c-226.21696 0-409.6-183.386112-409.6-409.6 0-8.875008 0.283648-17.682432 0.83968-26.417152l229.921792 155.626496h-99.039232c48.736256 104.6272 154.8288 177.152 277.861376 177.152z m36.34688-258.849792h76.606464c20.283392 0 30.425088 10.141696 30.425088 30.425088 0 19.919872-10.141696 29.88032-30.425088 29.88032h-76.60544v63.023104c0 14.12608-1.992704 23.543808-5.977088 28.25216-3.98336 4.709376-12.67712 7.061504-26.079232 7.061504-11.589632 0-19.920896-2.352128-24.991744-7.061504-5.069824-4.708352-7.605248-14.12608-7.605248-28.25216v-63.023104H408.15616c-20.283392 0-30.425088-9.961472-30.425088-29.882368 0-20.282368 9.778176-30.424064 29.3376-30.424064h76.60544v-27.707392h-75.517952c-20.283392 0-30.425088-9.961472-30.425088-29.882368 0-20.283392 9.778176-30.425088 29.3376-30.425088h42.919936c-144.031744-247.973888-154.990592-265.61536-165.957632-283.24864l132.815872 229.189632c121.772032 211.424256 110.820352 193.792 99.877888 176.154624L383.707136 363.377664c-5.79584-9.417728-7.877632-17.747968-6.247424-24.992768 1.630208-7.242752 6.0672-13.402112 13.309952-18.470912 8.331264-5.79584 16.028672-8.148992 23.090176-7.062528 7.062528 1.08544 13.85472 7.061504 20.374528 17.928192l82.582528 137.99936a23299.156992 23299.156992 0 0 1 40.204288-68.186112 22406.109184 22406.109184 0 0 0 40.205312-68.18304c3.984384-6.520832 7.697408-11.32032 11.137024-14.398464 3.44064-3.079168 6.971392-4.8896 10.59328-5.433344 3.620864-0.54272 7.243776 0 10.865664 1.630208 3.620864 1.631232 7.426048 3.713024 11.410432 6.247424 9.055232 5.796864 13.944832 11.862016 14.6688 18.202624 0.723968 6.337536-1.810432 14.57664-7.606272 24.718336l-65.197056 108.118016h41.83552c20.283392 0 30.425088 10.141696 30.425088 30.425088 0 19.922944-10.141696 29.882368-30.425088 29.882368h-76.60544v27.70944h0.002048z" p-id="3505"></path>
</svg>