<svg t="1607350325360" class="icon" viewBox="0 0 1024 1024" version="1.1"
    xmlns="http://www.w3.org/2000/svg" p-id="38958" width="200" height="200">
    <path d="M779.776 411.136c3.072-182.784-206.336-188.928-206.336-188.928 66.56 1.024 87.552 181.248 87.552 181.248l-3.584 227.84-123.392-2.048s-10.24-0.512-13.312 13.312c-3.072 12.8 2.048 27.648 2.048 27.648l156.672 237.056s8.704 15.36 30.208 15.872c22.016 0.512 33.28-20.992 33.28-20.992s165.376-225.28 168.96-230.4c0 0 8.192-10.752 5.632-22.528-2.56-13.824-9.728-13.824-9.728-13.824l-132.096-2.048" fill="#40A875" p-id="38959"></path>
    <path d="M243.712 614.4C240.64 797.184 450.56 803.84 450.56 803.84c-66.56-1.024-88.064-181.248-88.064-181.248l4.096-229.376 123.904 2.048s8.192-0.512 12.8-16.896c3.584-13.312-2.048-23.04-2.048-23.04L343.552 117.76s-8.704-15.36-30.208-15.872c-22.016-0.512-33.28 21.504-33.28 21.504l-169.472 230.4c-1.536 2.048-6.656 8.192-5.632 17.92 1.536 14.848 9.728 17.408 9.728 17.408l132.096 2.048" fill="#F34B4A" p-id="38960"></path>
</svg>